<svg width="40" height="40" viewBox="0 0 40 40" fill="none" xmlns="http://www.w3.org/2000/svg">
<g id="money">
<g id="vuesax/bold/document">
<g id="vuesax/bold/document_2">
<g id="document">
<path id="Vector" d="M26.983 3.3335H13.0163C6.94967 3.3335 3.33301 6.95016 3.33301 13.0168V26.9668C3.33301 33.0502 6.94967 36.6668 13.0163 36.6668H26.9663C33.033 36.6668 36.6497 33.0502 36.6497 26.9835V13.0168C36.6663 6.95016 33.0497 3.3335 26.983 3.3335ZM26.2497 26.2502H13.7497C13.0663 26.2502 12.4997 25.6835 12.4997 25.0002C12.4997 24.3168 13.0663 23.7502 13.7497 23.7502H26.2497C26.933 23.7502 27.4997 24.3168 27.4997 25.0002C27.4997 25.6835 26.933 26.2502 26.2497 26.2502ZM26.2497 16.2502H13.7497C13.0663 16.2502 12.4997 15.6835 12.4997 15.0002C12.4997 14.3168 13.0663 13.7502 13.7497 13.7502H26.2497C26.933 13.7502 27.4997 14.3168 27.4997 15.0002C27.4997 15.6835 26.933 16.2502 26.2497 16.2502Z" fill="#0074E0"/>
</g>
</g>
</g>
</g>
</svg>
