<svg width="40" height="40" viewBox="0 0 40 40" fill="none" xmlns="http://www.w3.org/2000/svg">
<g id="reques">
<g id="vuesax/bold/message-notif">
<g id="vuesax/bold/message-notif_2">
<g id="message-notif">
<path id="Vector" d="M33.3333 11.2502C35.8646 11.2502 37.9167 9.19813 37.9167 6.66683C37.9167 4.13552 35.8646 2.0835 33.3333 2.0835C30.802 2.0835 28.75 4.13552 28.75 6.66683C28.75 9.19813 30.802 11.2502 33.3333 11.2502Z" fill="#0074E0"/>
<path id="Vector_2" d="M31.733 13.5835C29.1163 13.0168 26.983 10.8835 26.4163 8.26683C26.1997 7.25016 26.183 6.26683 26.3663 5.3335C26.583 4.30016 25.8163 3.3335 24.7497 3.3335H11.6663C7.06634 3.3335 3.33301 7.06683 3.33301 11.6668V23.2502C3.33301 27.8502 7.06634 31.5835 11.6663 31.5835H14.1663C14.633 31.5835 15.233 31.8835 15.4997 32.2502L17.9997 35.5668C19.0997 37.0335 20.8997 37.0335 21.9997 35.5668L24.4997 32.2502C24.8163 31.8335 25.2997 31.5835 25.833 31.5835H28.3497C32.9497 31.5835 36.6663 27.8668 36.6663 23.2668V15.2502C36.6663 14.2002 35.6997 13.4335 34.6663 13.6335C33.733 13.8002 32.7497 13.8002 31.733 13.5835ZM13.333 20.0002C12.3997 20.0002 11.6663 19.2502 11.6663 18.3335C11.6663 17.4168 12.3997 16.6668 13.333 16.6668C14.2497 16.6668 14.9997 17.4168 14.9997 18.3335C14.9997 19.2502 14.2663 20.0002 13.333 20.0002ZM19.9997 20.0002C19.0663 20.0002 18.333 19.2502 18.333 18.3335C18.333 17.4168 19.0663 16.6668 19.9997 16.6668C20.9163 16.6668 21.6663 17.4168 21.6663 18.3335C21.6663 19.2502 20.933 20.0002 19.9997 20.0002ZM26.6663 20.0002C25.733 20.0002 24.9997 19.2502 24.9997 18.3335C24.9997 17.4168 25.733 16.6668 26.6663 16.6668C27.583 16.6668 28.333 17.4168 28.333 18.3335C28.333 19.2502 27.5997 20.0002 26.6663 20.0002Z" fill="#0074E0"/>
</g>
</g>
</g>
</g>
</svg>
